<svg width="754" height="435" viewBox="0 0 754 435" fill="none" xmlns="http://www.w3.org/2000/svg">
<g opacity="0.3">
<path d="M6.32827 378.264C4.82565 381.325 3.29012 385.715 3.90711 388.018C4.52412 390.32 8.04926 393.355 10.8805 395.253C14.0506 397.379 19.0939 400.023 25.1154 400.543C26.1009 400.628 27.0354 400.092 27.46 399.199C29.7731 394.332 30.5091 388.869 29.5988 383.587L38.7831 381.124C39.8111 386.33 39.6635 391.722 38.3365 396.854C38.0088 398.122 38.7704 399.415 40.0378 399.742C41.3051 400.07 42.5982 399.309 42.9258 398.041C44.4576 392.118 44.6043 385.892 43.3708 379.894L52.5423 377.435C53.6636 382.569 53.9635 387.799 53.4313 393.014C53.2983 394.316 54.2463 395.48 55.5486 395.613C56.8509 395.745 58.0143 394.798 58.1471 393.495C58.738 387.705 58.3935 381.9 57.1254 376.206L66.2893 373.748C67.1639 377.567 67.6898 381.456 67.8529 385.341C67.9077 386.648 69.0123 387.664 70.3206 387.609C71.6284 387.554 72.6439 386.449 72.5891 385.141C72.4114 380.91 71.833 376.675 70.8705 372.52L78.279 370.533C79.6783 373.815 82.0888 376.546 85.2336 378.361C89.0715 380.577 93.5427 381.166 97.8232 380.019C98.6676 379.792 99.3189 379.12 99.5178 378.269C99.7166 377.417 99.431 376.526 98.7744 375.949C91.6965 369.729 89.0744 359.942 92.0937 351.016C92.3738 350.188 92.1756 349.273 91.5776 348.635C91.416 348.463 91.2325 348.318 91.0338 348.204C90.4974 347.894 89.8513 347.802 89.2351 347.967C84.9543 349.114 81.3768 351.859 79.161 355.697C77.3452 358.842 76.6231 362.412 77.0523 365.955L69.6432 367.941C68.3998 363.866 66.7846 359.915 64.8255 356.166C64.6095 355.753 64.2885 355.43 63.9123 355.212C63.2329 354.82 62.3738 354.773 61.6271 355.164C60.4671 355.77 60.0181 357.202 60.6245 358.362C62.4232 361.804 63.9106 365.43 65.0623 369.169L55.8985 371.627C54.1496 366.066 51.5467 360.869 48.1418 356.153C47.9396 355.873 47.6875 355.65 47.4066 355.488C46.6227 355.035 45.6139 355.054 44.8326 355.619C43.7712 356.385 43.532 357.866 44.2982 358.928C47.3652 363.176 49.7194 367.852 51.3153 372.856L42.144 375.315C40.2129 369.506 36.9734 364.189 32.6866 359.827C32.5325 359.67 32.3621 359.539 32.1802 359.434C31.281 358.915 30.1114 359.034 29.3348 359.797C28.4011 360.715 28.3879 362.216 29.3054 363.149C33.0201 366.929 35.843 371.524 37.5562 376.545L28.3721 379.007C26.5196 373.978 23.1505 369.616 18.7138 366.557C18.6613 366.521 18.6077 366.487 18.5531 366.456C17.7618 365.999 16.7699 366.036 16.0115 366.566C11.0564 370.027 8.01074 374.838 6.32827 378.264ZM17.03 382.048C18.2945 381.709 19.5941 382.459 19.9329 383.724C20.2717 384.988 19.5214 386.288 18.2569 386.626C16.9925 386.965 15.6929 386.215 15.3541 384.951C15.0152 383.686 15.7657 382.386 17.03 382.048Z" fill="#F3F3F3"/>
</g>
<g opacity="0.3">
<path d="M740.539 94.8977C744.197 94.6517 749.112 93.721 750.924 91.9083C752.737 90.0956 753.668 85.1812 753.913 81.5237C754.189 77.4283 753.939 71.3101 751.186 65.4229C750.735 64.4595 749.734 63.8771 748.673 63.9621C742.897 64.4248 737.414 66.6767 732.984 70.3645L725.752 63.1354C730.048 59.3788 735.149 56.6173 740.642 55.0935C741.998 54.7173 742.793 53.3127 742.417 51.9562C742.041 50.5998 740.636 49.8051 739.28 50.1814C732.94 51.9398 727.063 55.1507 722.14 59.5245L714.919 52.3054C719.097 48.5006 723.806 45.4094 728.949 43.1009C730.234 42.5245 730.807 41.0161 730.231 39.7319C729.654 38.4476 728.146 37.8738 726.862 38.4503C721.152 41.0134 715.931 44.4555 711.31 48.698L704.094 41.4851C707.18 38.6174 710.519 36.0366 714.049 33.796C715.237 33.0419 715.589 31.4671 714.835 30.2782C714.08 29.0898 712.506 28.738 711.317 29.4923C707.472 31.933 703.839 34.7486 700.487 37.8792L694.653 32.0479C696.957 28.9802 698.204 25.2673 698.204 21.3623C698.204 16.5968 696.348 12.1163 692.978 8.74662C692.314 8.0819 691.337 7.83704 690.438 8.10942C689.538 8.38197 688.861 9.12724 688.677 10.0491C686.69 19.9851 678.985 27.6891 669.049 29.6765C668.128 29.8609 667.382 30.5375 667.11 31.4372C667.036 31.6804 667 31.929 667 32.1757C667 32.8418 667.262 33.4931 667.747 33.978C671.117 37.3479 675.597 39.2036 680.363 39.2036C684.268 39.2036 687.981 37.9565 691.049 35.6523L696.883 41.4841C693.756 44.833 690.945 48.4618 688.507 52.3019C688.238 52.7253 688.11 53.198 688.11 53.6651C688.11 54.5088 688.528 55.3339 689.293 55.8195C690.481 56.5738 692.056 56.2221 692.811 55.0335C695.049 51.508 697.626 48.1731 700.49 45.0898L707.705 52.3027C703.466 56.9215 700.027 62.1394 697.465 67.8463C697.313 68.1853 697.241 68.5397 697.241 68.8886C697.241 69.8619 697.801 70.791 698.747 71.2153C700.031 71.7918 701.54 71.218 702.116 69.9338C704.423 64.7933 707.512 60.0867 711.314 55.9101L718.535 63.129C714.164 68.0507 710.954 73.9264 709.196 80.264C709.133 80.4919 709.103 80.721 709.103 80.9468C709.103 82.0633 709.843 83.0885 710.971 83.4013C712.328 83.7775 713.732 82.9829 714.109 81.6265C715.632 76.1345 718.393 71.0354 722.148 66.7401L729.379 73.969C725.691 78.3983 723.44 83.8816 722.977 89.6579C722.972 89.7262 722.969 89.7943 722.969 89.8621C722.969 90.8448 723.537 91.7486 724.438 92.17C730.326 94.9235 736.444 95.1732 740.539 94.8977ZM738.309 82.8971C737.313 81.9017 737.313 80.288 738.309 79.2926C739.304 78.2972 740.918 78.2972 741.913 79.2926C742.909 80.288 742.909 81.9017 741.913 82.8971C740.918 83.8925 739.304 83.8925 738.309 82.8971Z" fill="#F3F3F3"/>
</g>
<g opacity="0.3">
<path d="M268.987 29.2941C269.572 26.3254 269.88 22.2087 268.822 20.3763C267.764 18.5439 264.045 16.7523 261.182 15.775C257.976 14.6805 253.045 13.5726 247.763 14.5103C246.899 14.6638 246.221 15.3377 246.062 16.2011C245.197 20.905 245.821 25.7577 247.815 30.0768L240.507 34.2978C238.429 30.0707 237.317 25.4144 237.276 20.7094C237.266 19.5476 236.316 18.614 235.154 18.6243C233.992 18.6345 233.059 19.5845 233.069 20.7463C233.116 26.1763 234.421 31.5477 236.856 36.4064L229.558 40.6215C227.417 36.4774 225.959 32.0628 225.217 27.4694C225.032 26.3224 223.952 25.5427 222.805 25.728C221.658 25.9132 220.878 26.9931 221.064 28.1402C221.887 33.24 223.516 38.1375 225.911 42.7279L218.62 46.9396C216.993 43.8667 215.648 40.6536 214.616 37.3607C214.269 36.2523 213.089 35.6352 211.979 35.9827C210.871 36.3303 210.254 37.5107 210.601 38.6194C211.726 42.2062 213.195 45.7039 214.974 49.0451L209.079 52.4501C207.126 49.958 204.432 48.171 201.319 47.3368C197.52 46.3188 193.551 46.8413 190.145 48.8079C189.473 49.1958 189.069 49.922 189.094 50.6973C189.119 51.4729 189.569 52.1715 190.264 52.5154C197.761 56.2222 202.257 64.01 201.719 72.3559C201.669 73.1301 202.049 73.869 202.709 74.2784C202.887 74.389 203.077 74.4707 203.274 74.5234C203.805 74.6657 204.38 74.5963 204.87 74.3132C208.277 72.3463 210.713 69.171 211.731 65.3718C212.565 62.2585 212.364 59.0319 211.183 56.0937L217.078 52.6887C219.08 55.8965 221.373 58.9131 223.913 61.6767C224.194 61.9816 224.543 62.1848 224.915 62.2846C225.588 62.4648 226.335 62.3076 226.886 61.8016C227.741 61.0153 227.797 59.6845 227.01 58.8291C224.678 56.2919 222.57 53.5249 220.723 50.5833L228.015 46.3717C230.792 50.7375 234.217 54.5942 238.22 57.8556C238.457 58.0494 238.724 58.1824 239.003 58.2569C239.779 58.4649 240.639 58.2166 241.179 57.5535C241.913 56.6528 241.778 55.3277 240.877 54.5938C237.272 51.6563 234.18 48.1884 231.662 44.2652L238.96 40.0502C241.95 44.5867 245.948 48.4006 250.625 51.1557C250.794 51.2548 250.97 51.3277 251.15 51.3759C252.04 51.6145 253.015 51.2436 253.506 50.4108C254.095 49.4098 253.762 48.1203 252.761 47.5306C248.708 45.1431 245.232 41.8529 242.61 37.9417L249.918 33.7208C252.662 37.6068 256.552 40.5731 261.058 42.1759C261.112 42.1948 261.165 42.2115 261.219 42.226C262.003 42.4359 262.845 42.1763 263.373 41.5479C266.826 37.4422 268.332 32.6181 268.987 29.2941ZM258.943 28.509C257.937 29.0899 256.651 28.7452 256.07 27.739C255.489 26.7328 255.834 25.4463 256.84 24.8654C257.846 24.2845 259.132 24.6292 259.713 25.6354C260.294 26.6416 259.95 27.9282 258.943 28.509Z" fill="#F3F3F3"/>
</g>
<g opacity="0.3">
<path d="M495.388 348.875C496.244 344.53 496.695 338.505 495.147 335.823C493.598 333.141 488.155 330.519 483.964 329.088C479.271 327.487 472.055 325.865 464.324 327.237C463.059 327.462 462.067 328.448 461.834 329.712C460.568 336.597 461.481 343.699 464.4 350.021L453.703 356.198C450.663 350.012 449.036 343.197 448.975 336.31C448.96 334.61 447.57 333.244 445.869 333.259C444.169 333.274 442.802 334.664 442.818 336.364C442.887 344.312 444.796 352.173 448.361 359.285L437.679 365.454C434.546 359.389 432.412 352.927 431.326 346.204C431.055 344.526 429.474 343.385 427.796 343.656C426.117 343.927 424.976 345.507 425.247 347.186C426.452 354.65 428.836 361.818 432.342 368.537L421.67 374.701C419.288 370.204 417.321 365.501 415.81 360.681C415.302 359.059 413.574 358.156 411.951 358.665C410.329 359.173 409.426 360.901 409.934 362.524C411.58 367.773 413.729 372.893 416.334 377.783L407.706 382.766C404.847 379.119 400.904 376.503 396.348 375.282C390.787 373.792 384.979 374.557 379.994 377.435C379.01 378.003 378.419 379.066 378.456 380.201C378.493 381.336 379.151 382.359 380.169 382.862C391.141 388.287 397.722 399.685 396.934 411.901C396.861 413.034 397.417 414.115 398.382 414.714C398.643 414.876 398.922 414.996 399.21 415.073C399.987 415.281 400.828 415.18 401.546 414.765C406.532 411.887 410.098 407.239 411.588 401.679C412.809 397.122 412.514 392.399 410.785 388.099L419.414 383.115C422.344 387.81 425.699 392.226 429.418 396.27C429.828 396.717 430.339 397.014 430.884 397.16C431.869 397.424 432.962 397.194 433.768 396.453C435.02 395.302 435.102 393.355 433.951 392.103C430.537 388.389 427.451 384.339 424.749 380.034L435.421 373.87C439.485 380.26 444.498 385.904 450.356 390.678C450.704 390.961 451.095 391.156 451.502 391.265C452.638 391.57 453.897 391.206 454.688 390.236C455.762 388.917 455.564 386.978 454.246 385.904C448.969 381.604 444.443 376.529 440.758 370.787L451.439 364.618C455.815 371.257 461.668 376.839 468.513 380.872C468.76 381.017 469.017 381.124 469.281 381.194C470.584 381.543 472.011 381 472.729 379.782C473.592 378.316 473.104 376.429 471.639 375.566C465.707 372.072 460.62 367.256 456.782 361.532L467.478 355.354C471.494 361.042 477.188 365.383 483.783 367.729C483.861 367.757 483.94 367.781 484.019 367.802C485.165 368.109 486.398 367.729 487.171 366.81C492.225 360.801 494.429 353.74 495.388 348.875ZM480.688 347.726C479.215 348.576 477.332 348.072 476.482 346.599C475.632 345.126 476.136 343.243 477.609 342.393C479.082 341.543 480.964 342.047 481.815 343.52C482.665 344.993 482.16 346.876 480.688 347.726Z" fill="#F3F3F3"/>
</g>
</svg>
