<svg width="1007" height="733" viewBox="0 0 1007 733" fill="none" xmlns="http://www.w3.org/2000/svg">
<g opacity="0.1">
<path d="M236.514 138.568C234.506 123.592 225.138 110.842 211.454 104.461C197.77 98.0799 181.981 99.1004 169.22 107.189L138.466 126.678C133.364 129.911 129.518 134.602 127.345 140.24C125.171 145.879 124.876 151.936 126.488 157.76C128.105 163.581 131.479 168.618 136.246 172.327C141.012 176.035 146.725 178.064 152.764 178.197L153.169 178.204C168.314 178.647 182.7 185.416 192.696 196.816C195.274 199.757 198.375 202.081 201.844 203.699C203.729 204.578 205.727 205.248 207.806 205.696C213.71 206.965 219.738 206.312 225.238 203.808C230.735 201.304 235.187 197.183 238.111 191.893C241.035 186.602 242.156 180.641 241.354 174.652L236.514 138.568Z" fill="white"/>
<path d="M156.794 100.534C163.007 100.968 168.99 98.5912 173.64 93.8393C178.066 89.3179 180.758 83.1387 181.219 76.438C181.677 69.7406 179.856 63.2499 176.093 58.1599C172.138 52.8143 166.539 49.6332 160.332 49.2065C147.85 48.3377 136.896 59.1452 135.913 73.3052C135.144 84.5818 140.931 94.625 149.626 98.6793C151.846 99.7145 154.256 100.359 156.794 100.534Z" fill="white"/>
<path d="M201.174 94.728C214.597 100.987 231.174 93.9474 238.127 79.0358C245.082 64.1204 239.819 46.8944 226.397 40.6356C212.976 34.3774 196.399 41.4198 189.444 56.3351C182.491 71.2467 187.753 88.4697 201.174 94.728Z" fill="white"/>
<path d="M239.329 121.17L239.33 121.171C241.043 122.799 242.962 124.091 245.025 125.053C254.651 129.542 267.339 126.825 276 117.596C280.987 112.284 283.945 105.588 284.327 98.7419C284.729 91.5756 282.299 85.1046 277.483 80.5195C272.665 75.9338 266.113 73.8545 259.033 74.6617C252.268 75.4328 245.798 78.7844 240.814 84.0975C230.298 95.3047 229.632 111.935 239.329 121.17Z" fill="white"/>
<path d="M291.84 141.413L291.838 141.407C285.822 130.422 270.781 126.954 258.306 133.679C245.835 140.412 240.573 154.827 246.573 165.811C248.76 169.818 252.15 172.827 256.179 174.705C263.2 177.98 272.168 177.823 280.107 173.548C292.576 166.814 297.84 152.399 291.84 141.413Z" fill="white"/>
</g>
<g opacity="0.1">
<path d="M453.709 141.411C456.794 151.116 464.504 158.483 474.334 161.117C484.164 163.751 494.524 161.226 502.048 154.363L520.18 137.828C523.188 135.085 525.192 131.521 525.975 127.525C526.758 123.527 526.245 119.472 524.493 115.796C522.739 112.121 519.91 109.173 516.312 107.269C512.714 105.365 508.685 104.687 504.661 105.306L504.391 105.348C494.286 106.827 483.946 104.017 475.977 97.6199C473.921 95.9699 471.591 94.7898 469.099 94.1222C467.744 93.7592 466.34 93.548 464.908 93.4941C460.84 93.3431 456.916 94.482 453.558 96.7878C450.203 99.0932 447.73 102.349 446.408 106.203C445.086 110.057 445.04 114.144 446.273 118.026L453.709 141.411Z" fill="white"/>
<path d="M511.075 157.326C506.899 157.765 503.206 160.043 500.676 163.742C498.268 167.261 497.204 171.677 497.682 176.179C498.162 180.678 500.13 184.773 503.224 187.711C506.474 190.796 510.563 192.253 514.733 191.809C523.12 190.925 529.125 182.47 528.121 172.956C527.311 165.381 522.295 159.392 516.049 157.718C514.455 157.291 512.78 157.145 511.075 157.326Z" fill="white"/>
<path d="M482.296 166.374C472.655 163.79 462.475 170.403 459.605 181.114C456.734 191.828 462.243 202.646 471.885 205.23C481.526 207.813 491.705 201.199 494.575 190.485C497.446 179.773 491.937 168.957 482.296 166.374Z" fill="white"/>
<path d="M453.876 153.288L453.875 153.288C452.548 152.407 451.123 151.774 449.641 151.377C442.726 149.524 434.623 152.813 429.954 159.952C427.265 164.061 426.086 168.852 426.633 173.441C427.205 178.245 429.576 182.255 433.309 184.735C437.043 187.215 441.635 187.829 446.241 186.464C450.64 185.161 454.543 182.179 457.229 178.069C462.898 169.399 461.394 158.283 453.876 153.288Z" fill="white"/>
<path d="M416.653 145.997L416.655 146.001C421.934 152.588 432.323 153.13 439.817 147.206C447.306 141.278 449.112 131.093 443.845 124.505C441.924 122.101 439.322 120.501 436.428 119.726C431.384 118.374 425.45 119.527 420.681 123.294C413.192 129.223 411.385 139.407 416.653 145.997Z" fill="white"/>
</g>
<g opacity="0.1">
<path d="M132.389 419.037C131.738 404.901 124.039 392.239 111.792 385.169C99.546 378.098 84.7312 377.762 72.1643 384.266L41.8801 399.939C36.8558 402.539 32.8843 406.602 30.3966 411.685C27.9082 416.768 27.1382 422.396 28.1671 427.961C29.2003 433.524 31.9372 438.499 36.0815 442.348C40.2259 446.198 45.3903 448.557 51.0142 449.174L51.3916 449.214C65.4858 450.863 78.3552 458.353 86.7506 469.806C88.9166 472.76 91.6198 475.182 94.724 476.974C96.4117 477.949 98.2202 478.737 100.124 479.325C105.529 480.99 111.206 480.873 116.542 478.986C121.875 477.098 126.365 473.617 129.526 468.92C132.686 464.222 134.218 458.753 133.959 453.099L132.389 419.037Z" fill="white"/>
<path d="M61.1132 377.043C66.8753 377.955 72.6515 376.226 77.378 372.172C81.8763 368.315 84.8921 362.769 85.8693 356.555C86.8435 350.344 85.6747 344.139 82.5786 339.083C79.3258 333.772 74.3613 330.347 68.6051 329.442C57.0299 327.613 45.9279 336.802 43.8547 349.933C42.2164 360.392 46.7957 370.234 54.577 374.727C56.5638 375.874 58.7597 376.672 61.1132 377.043Z" fill="white"/>
<path d="M102.996 375.249C115.008 382.184 131.05 376.97 138.754 363.625C146.461 350.276 142.958 333.775 130.945 326.839C118.934 319.905 102.893 325.122 95.1859 338.47C87.4811 351.815 90.9848 368.314 102.996 375.249Z" fill="white"/>
<path d="M136.436 403.034L136.437 403.035C137.902 404.694 139.587 406.056 141.433 407.122C150.048 412.096 162.108 410.597 170.942 402.694C176.029 398.145 179.335 392.138 180.251 385.782C181.211 379.129 179.471 372.893 175.352 368.222C171.232 363.55 165.289 361.075 158.616 361.25C152.242 361.417 145.932 364.016 140.848 368.567C130.121 378.164 128.142 393.627 136.436 403.034Z" fill="white"/>
<path d="M183.777 426.208L183.776 426.202C179.06 415.462 165.31 410.999 153.121 416.254C140.937 421.518 134.85 434.538 139.551 445.276C141.265 449.193 144.181 452.277 147.787 454.359C154.071 457.987 162.451 458.573 170.207 455.232C182.39 449.968 188.479 436.948 183.777 426.208Z" fill="white"/>
</g>
<g opacity="0.1">
<path d="M942.926 556.411C933.24 551.398 921.823 551.658 912.385 557.107C902.948 562.556 897.014 572.314 896.513 583.207L895.304 609.459C895.103 613.814 896.284 618.03 898.718 621.649C901.152 625.269 904.611 627.951 908.722 629.409C912.833 630.863 917.208 630.953 921.374 629.67C925.54 628.388 929.105 625.85 931.683 622.334L931.855 622.098C938.387 613.327 948.345 607.624 959.224 606.433C962.03 606.126 964.688 605.255 967.081 603.874C968.381 603.123 969.604 602.22 970.73 601.176C973.924 598.21 976.033 594.376 976.83 590.087C977.625 585.801 977.032 581.463 975.115 577.543C973.198 573.624 970.137 570.494 966.264 568.488L942.926 556.411Z" fill="white"/>
<path d="M887.433 587.8C890.263 584.306 891.334 579.785 890.45 575.068C889.609 570.579 887.07 566.43 883.299 563.383C879.529 560.34 874.937 558.729 870.37 558.847C865.572 558.972 861.373 560.965 858.551 564.458C852.87 571.479 854.725 582.429 862.69 588.873C869.039 593.996 877.372 594.732 883.369 591.27C884.9 590.386 886.279 589.228 887.433 587.8Z" fill="white"/>
<path d="M902.375 559.156C911.632 553.811 914.333 541.095 908.395 530.811C902.456 520.524 890.093 516.504 880.835 521.848C871.579 527.193 868.88 539.909 874.819 550.196C880.757 560.481 893.118 564.5 902.375 559.156Z" fill="white"/>
<path d="M933.804 547.545L933.805 547.544C935.477 547.206 937.035 546.606 938.458 545.785C945.097 541.952 948.743 533.325 946.873 524.383C945.797 519.236 943.062 514.715 939.173 511.655C935.102 508.45 930.27 507.208 925.565 508.157C920.86 509.107 916.918 512.12 914.463 516.641C912.119 520.959 911.422 526.172 912.5 531.319C914.772 542.176 924.329 549.455 933.804 547.545Z" fill="white"/>
<path d="M967.512 524.878L967.508 524.877C958.523 523.886 950.245 531.343 949.056 541.503C947.875 551.664 954.219 560.743 963.197 561.743C966.472 562.109 969.654 561.35 972.432 559.746C977.275 556.95 980.895 551.583 981.654 545.119C982.835 534.959 976.492 525.879 967.512 524.878Z" fill="white"/>
</g>
<g opacity="0.1">
<path d="M914.729 73.521C905.874 67.082 894.503 65.6137 884.313 69.5949C874.122 73.5761 866.759 82.3634 864.614 93.0994L859.446 118.97C858.588 123.262 859.123 127.625 860.992 131.585C862.86 135.545 865.888 138.73 869.747 140.798C873.607 142.863 877.936 143.614 882.264 142.971C886.593 142.327 890.514 140.348 893.605 137.248L893.811 137.039C901.62 129.322 912.365 125.167 923.342 125.631C926.173 125.75 928.943 125.287 931.526 124.278C932.931 123.73 934.281 123.018 935.556 122.152C939.175 119.692 941.848 116.205 943.287 112.069C944.724 107.935 944.791 103.54 943.481 99.3604C942.17 95.1808 939.606 91.6114 936.066 89.0357L914.729 73.521Z" fill="white"/>
<path d="M854.909 96.2844C858.245 93.2444 859.992 88.9189 859.827 84.1041C859.671 79.5223 857.778 75.0201 854.497 71.4263C851.215 67.8356 846.902 65.5429 842.351 64.9696C837.57 64.3681 833.102 65.7119 829.773 68.7521C823.073 74.8608 823.259 86.0093 830.19 93.6084C835.716 99.6529 843.876 101.644 850.351 99.114C852.004 98.4681 853.547 97.5272 854.909 96.2844Z" fill="white"/>
<path d="M874.068 70.1151C884.063 66.21 888.666 53.9986 884.328 42.8939C879.989 31.7865 868.326 25.9274 858.33 29.8325C848.336 33.7372 843.734 45.9501 848.074 57.0575C852.412 68.1622 864.073 74.0198 874.068 70.1151Z" fill="white"/>
<path d="M907.016 63.3421L907.017 63.3417C908.727 63.259 910.365 62.899 911.901 62.2989C919.069 59.4983 923.993 51.4881 923.488 42.331C923.198 37.0595 921.167 32.1592 917.77 28.5338C914.214 24.738 909.606 22.7749 904.794 23.0057C899.98 23.2369 895.612 25.6314 892.493 29.747C889.513 33.6785 888.033 38.747 888.325 44.0177C888.939 55.137 897.324 63.8059 907.016 63.3421Z" fill="white"/>
<path d="M943.898 45.9421L943.894 45.9405C935.126 43.5986 925.784 49.7481 923.068 59.652C920.359 69.5574 925.283 79.5277 934.042 81.8772C937.237 82.7353 940.509 82.4634 943.51 81.2912C948.739 79.2483 953.143 74.4693 954.873 68.1689C957.581 58.2638 952.659 48.2932 943.898 45.9421Z" fill="white"/>
</g>
<g opacity="0.1">
<path d="M485.426 616.837C472.952 610.381 458.247 610.716 446.092 617.734C433.936 624.752 426.294 637.319 425.649 651.35L424.092 685.16C423.833 690.769 425.354 696.199 428.489 700.86C431.624 705.522 436.079 708.977 441.373 710.854C446.668 712.727 452.303 712.844 457.669 711.191C463.034 709.539 467.625 706.271 470.946 701.743L471.168 701.438C479.581 690.142 492.406 682.796 506.417 681.264C510.031 680.868 513.455 679.746 516.536 677.967C518.211 677 519.786 675.837 521.236 674.492C525.35 670.672 528.067 665.734 529.093 660.211C530.117 654.69 529.353 649.102 526.884 644.055C524.415 639.007 520.473 634.975 515.485 632.392L485.426 616.837Z" fill="white"/>
<path d="M413.955 657.264C417.599 652.764 418.979 646.941 417.84 640.866C416.757 635.085 413.487 629.741 408.63 625.817C403.775 621.897 397.861 619.822 391.978 619.974C385.799 620.135 380.391 622.702 376.757 627.201C369.44 636.243 371.829 650.347 382.087 658.646C390.264 665.244 400.998 666.193 408.721 661.734C410.693 660.595 412.469 659.104 413.955 657.264Z" fill="white"/>
<path d="M433.199 620.372C445.122 613.488 448.601 597.112 440.953 583.866C433.304 570.617 417.38 565.439 405.457 572.322C393.535 579.206 390.059 595.584 397.708 608.833C405.356 622.079 421.277 627.255 433.199 620.372Z" fill="white"/>
<path d="M473.679 605.418L473.68 605.417C475.833 604.982 477.84 604.209 479.673 603.151C488.223 598.214 492.92 587.104 490.511 575.587C489.125 568.958 485.603 563.135 480.593 559.193C475.351 555.066 469.127 553.466 463.068 554.689C457.007 555.912 451.93 559.793 448.769 565.615C445.75 571.177 444.852 577.891 446.24 584.52C449.167 598.503 461.476 607.878 473.679 605.418Z" fill="white"/>
<path d="M517.093 576.224L517.088 576.223C505.515 574.947 494.854 584.551 493.323 597.637C491.801 610.723 499.972 622.417 511.535 623.705C515.753 624.176 519.851 623.199 523.43 621.132C529.667 617.531 534.329 610.619 535.307 602.294C536.828 589.208 528.658 577.514 517.093 576.224Z" fill="white"/>
</g>
</svg>
