<svg width="1440" height="498" viewBox="0 0 1440 498" fill="none" xmlns="http://www.w3.org/2000/svg">
<mask id="mask0_236_20" style="mask-type:alpha" maskUnits="userSpaceOnUse" x="0" y="0" width="1440" height="498">
<rect width="1440" height="498" rx="5" fill="#78C0DE"/>
</mask>
<g mask="url(#mask0_236_20)">
<rect width="1444" height="498" rx="5" fill="#78C0DE"/>
<g opacity="0.1">
<path d="M1348.87 201.397C1327.21 190.188 1301.68 190.769 1280.58 202.954C1259.47 215.139 1246.2 236.959 1245.08 261.32L1242.38 320.022C1241.93 329.761 1244.57 339.189 1250.01 347.282C1255.46 355.376 1263.19 361.374 1272.38 364.634C1281.58 367.886 1291.36 368.088 1300.68 365.22C1309.99 362.351 1317.96 356.677 1323.73 348.814L1324.11 348.285C1338.72 328.672 1360.99 315.919 1385.32 313.257C1391.59 312.57 1397.53 310.623 1402.88 307.534C1405.79 305.855 1408.53 303.835 1411.04 301.5C1418.19 294.869 1422.9 286.295 1424.69 276.705C1426.46 267.119 1425.14 257.418 1420.85 248.654C1416.56 239.889 1409.72 232.889 1401.06 228.405L1348.87 201.397Z" fill="white"/>
<path d="M1224.78 271.589C1231.1 263.775 1233.5 253.664 1231.52 243.117C1229.64 233.08 1223.96 223.801 1215.53 216.988C1207.1 210.182 1196.83 206.58 1186.62 206.844C1175.89 207.123 1166.5 211.581 1160.19 219.392C1147.49 235.091 1151.64 259.578 1169.45 273.987C1183.64 285.444 1202.28 287.091 1215.69 279.349C1219.11 277.372 1222.2 274.782 1224.78 271.589Z" fill="white"/>
<path d="M1258.19 207.535C1278.89 195.583 1284.93 167.149 1271.65 144.151C1258.37 121.147 1230.72 112.157 1210.02 124.109C1189.32 136.06 1183.29 164.496 1196.57 187.5C1209.85 210.498 1237.49 219.486 1258.19 207.535Z" fill="white"/>
<path d="M1328.47 181.57L1328.47 181.569C1332.21 180.813 1335.7 179.471 1338.88 177.634C1353.73 169.063 1361.88 149.772 1357.7 129.777C1355.29 118.266 1349.17 108.157 1340.48 101.313C1331.38 94.1467 1320.57 91.3694 1310.05 93.492C1299.53 95.6157 1290.71 102.354 1285.22 112.462C1279.98 122.119 1278.42 133.777 1280.83 145.286C1285.91 169.565 1307.28 185.842 1328.47 181.57Z" fill="white"/>
<path d="M1403.85 130.883L1403.84 130.881C1383.75 128.665 1365.24 145.34 1362.58 168.06C1359.94 190.781 1374.12 211.085 1394.2 213.321C1401.52 214.138 1408.64 212.442 1414.85 208.854C1425.68 202.602 1433.78 190.601 1435.47 176.147C1438.12 153.427 1423.93 133.122 1403.85 130.883Z" fill="white"/>
</g>
<g opacity="0.1">
<path d="M130.094 449.896C125.838 436.51 115.204 426.349 101.646 422.716C88.0884 419.083 73.7983 422.566 63.4209 432.031L38.4122 454.837C34.263 458.621 31.4991 463.536 30.4197 469.048C29.34 474.562 30.0474 480.155 32.4636 485.226C34.8832 490.294 38.7853 494.361 43.7476 496.987C48.7098 499.613 54.2674 500.548 59.8176 499.694L60.1897 499.636C74.1263 497.597 88.389 501.472 99.3803 510.295C102.216 512.571 105.43 514.199 108.866 515.119C110.735 515.62 112.671 515.911 114.647 515.986C120.257 516.194 125.67 514.623 130.301 511.443C134.929 508.263 138.34 503.772 140.163 498.457C141.986 493.141 142.05 487.503 140.349 482.15L130.094 449.896Z" fill="white"/>
<path d="M50.9697 427.944C56.7285 427.339 61.8222 424.197 65.3122 419.096C68.634 414.243 70.1008 408.151 69.4413 401.942C68.7796 395.737 66.0651 390.089 61.7979 386.036C57.315 381.781 51.6754 379.772 45.9243 380.383C34.3565 381.603 26.0731 393.265 27.4588 406.387C28.5749 416.835 35.4938 425.095 44.1082 427.404C46.3078 427.993 48.6181 428.194 50.9697 427.944Z" fill="white"/>
<path d="M90.664 415.465C103.963 419.029 118.003 409.908 121.961 395.134C125.921 380.357 118.323 365.436 105.024 361.873C91.7269 358.31 77.6874 367.433 73.7278 382.21C69.7692 396.984 77.3668 411.902 90.664 415.465Z" fill="white"/>
<path d="M129.862 433.514L129.863 433.514C131.694 434.729 133.659 435.602 135.703 436.15C145.24 438.705 156.418 434.17 162.857 424.323C166.565 418.655 168.192 412.047 167.437 405.718C166.648 399.092 163.379 393.561 158.23 390.14C153.079 386.72 146.745 385.874 140.393 387.756C134.325 389.553 128.943 393.666 125.237 399.335C117.419 411.292 119.493 426.625 129.862 433.514Z" fill="white"/>
<path d="M181.203 443.57L181.201 443.565C173.92 434.48 159.591 433.733 149.255 441.903C138.925 450.08 136.434 464.126 143.7 473.213C146.349 476.529 149.938 478.736 153.93 479.806C160.887 481.67 169.071 480.079 175.649 474.883C185.977 466.706 188.47 452.66 181.203 443.57Z" fill="white"/>
</g>
<g opacity="0.1">
<path d="M51.744 227.234C56.7651 217.961 56.7208 206.919 51.624 197.697C46.5272 188.474 37.2016 182.562 26.6794 181.88L1.32352 180.236C-2.88298 179.963 -6.98031 181.028 -10.5228 183.316C-14.0662 185.603 -16.7218 188.899 -18.2054 192.846C-19.6856 196.794 -19.8522 201.022 -18.6876 205.073C-17.523 209.123 -15.1344 212.615 -11.7821 215.172L-11.5566 215.342C-3.19572 221.816 2.13732 231.545 3.09085 242.084C3.33719 244.802 4.13091 247.388 5.42283 249.725C6.12522 250.996 6.97625 252.195 7.96519 253.302C10.7744 256.444 14.4427 258.552 18.5742 259.4C22.7039 260.246 26.9084 259.752 30.732 257.969C34.5555 256.186 37.6371 253.285 39.6458 249.577L51.744 227.234Z" fill="white"/>
<path d="M22.4047 173.019C25.7311 175.817 30.0829 176.935 34.6585 176.165C39.0129 175.433 43.0704 173.054 46.084 169.464C49.0946 165.874 50.7348 161.465 50.7034 157.047C50.6697 152.407 48.8185 148.312 45.4928 145.52C38.8088 139.901 28.189 141.496 21.8157 149.079C16.748 155.124 15.8851 163.167 19.1235 169.027C19.9504 170.523 21.045 171.877 22.4047 173.019Z" fill="white"/>
<path d="M49.8243 187.982C54.8236 197.028 67.0671 199.869 77.1169 194.315C87.1691 188.76 91.2795 176.881 86.2801 167.835C81.2813 158.789 69.0366 155.95 58.9843 161.505C48.9346 167.059 44.8254 178.937 49.8243 187.982Z" fill="white"/>
<path d="M60.4818 218.576L60.4822 218.577C60.7788 220.199 61.3307 221.717 62.099 223.107C65.6844 229.595 73.9577 233.276 82.6357 231.629C87.6314 230.682 92.0514 228.12 95.0805 224.416C98.2521 220.539 99.5403 215.89 98.7078 211.325C97.8749 206.758 95.0335 202.893 90.7077 200.439C86.5754 198.094 81.5484 197.326 76.5536 198.274C66.0161 200.275 58.8064 209.382 60.4818 218.576Z" fill="white"/>
<path d="M81.7838 251.573L81.7849 251.569C82.9056 242.901 75.8467 234.764 66.0461 233.431C56.245 232.104 47.3527 238.073 46.2236 246.734C45.8107 249.893 46.4865 252.983 47.9871 255.698C50.6025 260.431 55.725 264.027 61.9601 264.878C71.7607 266.204 80.6535 260.236 81.7838 251.573Z" fill="white"/>
</g>
<g opacity="0.1">
<path d="M257.124 372.681C253.169 370.131 248.254 369.774 243.976 371.728C239.698 373.682 236.749 377.63 236.087 382.289L234.491 393.517C234.226 395.379 234.56 397.239 235.457 398.893C236.355 400.548 237.731 401.842 239.437 402.637C241.143 403.43 243.019 403.649 244.861 403.268C246.703 402.888 248.339 401.944 249.591 400.54L249.674 400.445C252.84 396.945 257.352 394.904 262.074 394.839C263.292 394.822 264.469 394.557 265.554 394.061C266.143 393.792 266.706 393.454 267.232 393.052C268.726 391.909 269.789 390.348 270.307 388.539C270.825 386.73 270.748 384.842 270.085 383.08C269.422 381.317 268.236 379.847 266.654 378.827L257.124 372.681Z" fill="white"/>
<path d="M231.998 383.889C233.357 382.505 234.002 380.606 233.816 378.544C233.639 376.581 232.718 374.694 231.223 373.231C229.728 371.769 227.822 370.888 225.855 370.752C223.789 370.609 221.904 371.293 220.548 372.678C217.819 375.46 218.167 380.241 221.325 383.335C223.842 385.797 227.392 386.455 230.11 385.213C230.804 384.896 231.444 384.456 231.998 383.889Z" fill="white"/>
<path d="M239.591 372.197C243.787 370.281 245.469 364.929 243.34 360.268C241.211 355.605 236.064 353.371 231.868 355.287C227.673 357.204 225.992 362.556 228.121 367.219C230.25 371.88 235.396 374.114 239.591 372.197Z" fill="white"/>
<path d="M253.569 368.498L253.569 368.498C254.302 368.421 254.996 368.227 255.64 367.933C258.65 366.558 260.57 363.002 260.133 359.084C259.882 356.829 258.893 354.775 257.347 353.3C255.73 351.757 253.705 351.025 251.645 351.24C249.585 351.455 247.768 352.587 246.528 354.429C245.344 356.188 244.831 358.399 245.083 360.654C245.614 365.411 249.421 368.93 253.569 368.498Z" fill="white"/>
<path d="M268.979 360.143L268.977 360.143C265.158 359.349 261.297 362.212 260.369 366.528C259.445 370.845 261.798 375.005 265.613 375.803C267.005 376.094 268.403 375.899 269.663 375.324C271.858 374.321 273.633 372.164 274.224 369.419C275.148 365.103 272.796 360.942 268.979 360.143Z" fill="white"/>
</g>
<g opacity="0.1">
<path d="M391.79 371.614C390.751 368.345 388.154 365.864 384.844 364.977C381.533 364.09 378.044 364.941 375.51 367.252L369.403 372.821C368.39 373.744 367.715 374.945 367.451 376.291C367.188 377.637 367.36 379.003 367.95 380.241C368.541 381.479 369.494 382.472 370.706 383.113C371.918 383.754 373.275 383.983 374.63 383.774L374.721 383.76C378.124 383.262 381.607 384.208 384.291 386.363C384.983 386.918 385.768 387.316 386.607 387.541C387.063 387.663 387.536 387.734 388.019 387.752C389.388 387.803 390.71 387.42 391.841 386.643C392.971 385.867 393.804 384.77 394.249 383.472C394.694 382.174 394.71 380.797 394.295 379.49L391.79 371.614Z" fill="white"/>
<path d="M372.47 366.254C373.876 366.106 375.12 365.339 375.972 364.093C376.783 362.908 377.141 361.421 376.98 359.904C376.819 358.389 376.156 357.01 375.114 356.02C374.019 354.981 372.642 354.491 371.238 354.64C368.413 354.938 366.39 357.786 366.729 360.99C367.001 363.541 368.691 365.558 370.794 366.122C371.331 366.266 371.896 366.315 372.47 366.254Z" fill="white"/>
<path d="M382.162 363.207C385.41 364.077 388.838 361.85 389.805 358.242C390.772 354.634 388.916 350.99 385.669 350.12C382.422 349.25 378.994 351.478 378.027 355.086C377.06 358.694 378.915 362.337 382.162 363.207Z" fill="white"/>
<path d="M391.734 367.614L391.734 367.614C392.182 367.91 392.662 368.124 393.161 368.257C395.489 368.881 398.219 367.774 399.791 365.369C400.697 363.985 401.094 362.372 400.91 360.826C400.717 359.208 399.919 357.858 398.661 357.022C397.404 356.187 395.857 355.981 394.306 356.44C392.824 356.879 391.51 357.883 390.605 359.268C388.696 362.188 389.202 365.932 391.734 367.614Z" fill="white"/>
<path d="M404.271 370.069L404.27 370.068C402.492 367.849 398.993 367.667 396.469 369.662C393.947 371.659 393.338 375.089 395.113 377.308C395.76 378.117 396.636 378.656 397.611 378.917C399.31 379.373 401.308 378.984 402.914 377.715C405.436 375.719 406.045 372.289 404.271 370.069Z" fill="white"/>
</g>
<g opacity="0.05">
<path d="M360.835 162.962C360.668 159.349 358.701 156.113 355.571 154.307C352.442 152.5 348.656 152.414 345.444 154.076L337.705 158.081C336.421 158.746 335.406 159.784 334.77 161.083C334.134 162.382 333.937 163.82 334.2 165.242C334.464 166.664 335.164 167.935 336.223 168.919C337.282 169.903 338.602 170.506 340.039 170.663L340.135 170.674C343.737 171.095 347.026 173.009 349.172 175.936C349.725 176.691 350.416 177.31 351.209 177.768C351.641 178.017 352.103 178.219 352.589 178.369C353.971 178.794 355.421 178.764 356.785 178.282C358.148 177.8 359.296 176.91 360.103 175.71C360.911 174.509 361.302 173.111 361.236 171.667L360.835 162.962Z" fill="white"/>
<path d="M342.62 152.23C344.092 152.463 345.569 152.021 346.776 150.985C347.926 149.999 348.697 148.582 348.946 146.994C349.195 145.407 348.897 143.821 348.105 142.529C347.274 141.172 346.005 140.296 344.534 140.065C341.576 139.598 338.739 141.946 338.209 145.302C337.791 147.974 338.961 150.49 340.949 151.638C341.457 151.931 342.018 152.135 342.62 152.23Z" fill="white"/>
<path d="M353.323 151.771C356.393 153.544 360.492 152.211 362.461 148.801C364.431 145.39 363.536 141.172 360.466 139.4C357.396 137.628 353.297 138.961 351.327 142.372C349.358 145.783 350.254 149.999 353.323 151.771Z" fill="white"/>
<path d="M361.869 158.872L361.869 158.872C362.244 159.296 362.674 159.644 363.146 159.917C365.348 161.188 368.43 160.805 370.687 158.785C371.987 157.622 372.832 156.087 373.066 154.463C373.312 152.763 372.867 151.169 371.814 149.975C370.761 148.781 369.243 148.149 367.537 148.194C365.908 148.236 364.296 148.901 362.997 150.063C360.255 152.516 359.749 156.468 361.869 158.872Z" fill="white"/>
<path d="M373.967 164.794L373.967 164.793C372.762 162.048 369.248 160.907 366.133 162.251C363.019 163.596 361.463 166.923 362.665 169.667C363.103 170.668 363.848 171.456 364.77 171.988C366.376 172.916 368.517 173.065 370.499 172.212C373.613 170.866 375.169 167.539 373.967 164.794Z" fill="white"/>
</g>
<g opacity="0.05">
<path d="M625.895 34.7234C626.669 31.1908 625.606 27.556 623.051 25.0007C620.496 22.4453 616.861 21.3823 613.328 22.1568L604.816 24.0225C603.404 24.3319 602.155 25.0722 601.205 26.1623C600.254 27.2526 599.692 28.5908 599.578 30.0326C599.465 31.4742 599.811 32.8833 600.58 34.1076C601.348 35.332 602.467 36.256 603.814 36.7802L603.905 36.815C607.275 38.1544 609.956 40.8545 611.271 44.237C611.611 45.1094 612.118 45.8861 612.765 46.5338C613.117 46.886 613.512 47.2002 613.943 47.4712C615.167 48.2398 616.576 48.5864 618.018 48.4734C619.459 48.3603 620.798 47.798 621.889 46.8475C622.98 45.897 623.72 44.6481 624.03 43.2354L625.895 34.7234Z" fill="white"/>
<path d="M611.078 19.6425C612.44 20.2489 613.981 20.2041 615.415 19.516C616.781 18.8614 617.892 17.6919 618.544 16.2226C619.196 14.7538 619.318 13.1449 618.888 11.692C618.436 10.166 617.437 8.9921 616.076 8.38802C613.34 7.17076 609.991 8.7048 608.611 11.8091C607.515 14.2824 607.994 17.0149 609.618 18.6386C610.033 19.0532 610.522 19.3954 611.078 19.6425Z" fill="white"/>
<path d="M621.535 21.9701C624.042 24.4766 628.347 24.2505 631.131 21.4659C633.916 18.6806 634.143 14.3754 631.637 11.8689C629.13 9.36263 624.825 9.5895 622.04 12.3748C619.256 15.1594 619.029 19.4638 621.535 21.9701Z" fill="white"/>
<path d="M627.952 31.0405L627.953 31.0407C628.204 31.5473 628.53 31.995 628.916 32.3802C630.713 34.1778 633.789 34.6054 636.493 33.2388C638.049 32.4523 639.263 31.1883 639.909 29.6799C640.586 28.101 640.569 26.4466 639.861 25.0211C639.153 23.5954 637.85 22.5913 636.191 22.1932C634.607 21.8129 632.877 22.037 631.321 22.824C628.039 24.4837 626.527 28.1697 627.952 31.0405Z" fill="white"/>
<path d="M638.106 39.8922L638.106 39.8908C637.652 36.9276 634.553 34.9163 631.196 35.4075C627.841 35.901 625.477 38.7124 625.927 41.6739C626.091 42.7543 626.607 43.7084 627.359 44.4607C628.671 45.772 630.7 46.4709 632.836 46.1592C636.192 45.6655 638.556 42.8544 638.106 39.8922Z" fill="white"/>
</g>
<g opacity="0.05">
<path d="M621.089 291.529C616.158 276.021 603.838 264.248 588.13 260.039C572.423 255.831 555.867 259.866 543.844 270.832L514.869 297.254C510.062 301.637 506.86 307.332 505.609 313.719C504.358 320.106 505.178 326.586 507.977 332.462C510.781 338.333 515.301 343.045 521.051 346.087C526.8 349.13 533.239 350.213 539.669 349.224L540.1 349.156C556.247 346.794 572.771 351.283 585.505 361.506C588.79 364.142 592.514 366.028 596.495 367.095C598.66 367.675 600.904 368.013 603.193 368.099C609.693 368.34 615.963 366.52 621.329 362.836C626.691 359.152 630.643 353.949 632.755 347.79C634.867 341.632 634.941 335.1 632.971 328.898L621.089 291.529Z" fill="white"/>
<path d="M529.418 266.096C536.09 265.395 541.991 261.755 546.035 255.845C549.883 250.222 551.583 243.164 550.819 235.971C550.052 228.782 546.907 222.238 541.963 217.543C536.769 212.612 530.236 210.285 523.572 210.993C510.17 212.406 500.573 225.918 502.179 241.121C503.472 253.225 511.488 262.796 521.468 265.47C524.017 266.153 526.693 266.386 529.418 266.096Z" fill="white"/>
<path d="M575.406 251.639C590.814 255.767 607.08 245.201 611.666 228.084C616.254 210.964 607.451 193.677 592.043 189.548C576.638 185.42 560.372 195.99 555.784 213.111C551.198 230.227 560 247.511 575.406 251.639Z" fill="white"/>
<path d="M620.821 272.548L620.823 272.549C622.944 273.956 625.221 274.967 627.589 275.602C638.638 278.563 651.588 273.308 659.049 261.9C663.345 255.333 665.229 247.677 664.355 240.345C663.441 232.668 659.653 226.259 653.687 222.297C647.72 218.334 640.382 217.354 633.022 219.534C625.992 221.617 619.756 226.382 615.463 232.949C606.405 246.803 608.808 264.567 620.821 272.548Z" fill="white"/>
<path d="M680.304 284.199L680.301 284.194C671.866 273.668 655.264 272.802 643.289 282.268C631.322 291.742 628.435 308.016 636.853 318.543C639.923 322.385 644.081 324.942 648.705 326.181C656.766 328.341 666.247 326.498 673.869 320.478C685.835 311.004 688.722 294.73 680.304 284.199Z" fill="white"/>
</g>
<g opacity="0.1">
<path d="M1362.38 6.10775C1363.2 13.4251 1367.62 19.7392 1374.22 22.9974C1380.81 26.2556 1388.52 25.9313 1394.82 22.1306L1410.02 12.9731C1412.54 11.4541 1414.46 9.21078 1415.58 6.48811C1416.7 3.76483 1416.91 0.817324 1416.19 -2.03734C1415.47 -4.89079 1413.88 -7.38149 1411.6 -9.24035C1409.32 -11.0992 1406.56 -12.1502 1403.62 -12.2807L1403.42 -12.2887C1396.05 -12.6702 1389.11 -16.1252 1384.37 -21.7884C1383.14 -23.249 1381.66 -24.4154 1379.99 -25.2413C1379.08 -25.6903 1378.11 -26.0387 1377.1 -26.2796C1374.24 -26.9622 1371.3 -26.71 1368.59 -25.5503C1365.88 -24.3907 1363.67 -22.4321 1362.19 -19.8868C1360.71 -17.3415 1360.09 -14.4501 1360.42 -11.5237L1362.38 6.10775Z" fill="white"/>
<path d="M1400.8 25.5085C1397.78 25.2288 1394.84 26.3214 1392.52 28.5854C1390.32 30.7395 1388.94 33.7203 1388.64 36.9794C1388.34 40.2371 1389.16 43.419 1390.94 45.9397C1392.81 48.5871 1395.5 50.1981 1398.52 50.4739C1404.59 51.0337 1410.04 45.8887 1410.68 39.0014C1411.18 33.5165 1408.47 28.5606 1404.28 26.4904C1403.2 25.9618 1402.04 25.6214 1400.8 25.5085Z" fill="white"/>
<path d="M1379.12 27.8511C1372.65 24.6552 1364.5 27.903 1360.95 35.0911C1357.39 42.281 1359.77 50.7303 1366.24 53.9261C1372.71 57.1217 1380.86 53.8724 1384.41 46.6825C1387.96 39.4944 1385.59 31.0467 1379.12 27.8511Z" fill="white"/>
<path d="M1360.82 14.5529L1360.82 14.5526C1360 13.7404 1359.08 13.09 1358.09 12.5989C1353.45 10.3069 1347.24 11.4915 1342.92 15.8925C1340.43 18.4256 1338.92 21.6554 1338.65 24.9862C1338.38 28.4729 1339.49 31.6518 1341.79 33.9382C1344.09 36.2248 1347.26 37.3095 1350.71 36.9937C1354.02 36.6922 1357.21 35.1302 1359.69 32.5965C1364.94 27.252 1365.44 19.1576 1360.82 14.5529Z" fill="white"/>
<path d="M1335.46 4.11656L1335.46 4.11925C1338.27 9.53644 1345.56 11.3905 1351.71 8.25105C1357.86 5.10746 1360.58 -1.85739 1357.78 -7.2737C1356.76 -9.24979 1355.14 -10.7524 1353.2 -11.7117C1349.81 -13.3836 1345.44 -13.4055 1341.53 -11.4097C1335.38 -8.26579 1332.66 -1.30124 1335.46 4.11656Z" fill="white"/>
</g>
<g opacity="0.1">
<path d="M910.721 232.945C906.68 232.06 902.522 233.276 899.599 236.199C896.676 239.122 895.46 243.28 896.346 247.321L898.48 257.058C898.834 258.674 899.681 260.103 900.928 261.19C902.175 262.277 903.706 262.92 905.355 263.051C907.004 263.18 908.616 262.784 910.017 261.904C911.417 261.025 912.474 259.746 913.074 258.204L913.114 258.101C914.646 254.246 917.735 251.178 921.604 249.674C922.602 249.286 923.49 248.706 924.231 247.965C924.634 247.562 924.994 247.111 925.304 246.618C926.183 245.218 926.579 243.606 926.45 241.956C926.321 240.307 925.677 238.776 924.59 237.528C923.503 236.28 922.074 235.434 920.458 235.079L910.721 232.945Z" fill="white"/>
<path d="M893.47 249.895C894.163 248.337 894.112 246.575 893.325 244.934C892.576 243.372 891.238 242.1 889.558 241.354C887.877 240.609 886.037 240.47 884.375 240.961C882.629 241.478 881.286 242.621 880.595 244.178C879.203 247.308 880.958 251.138 884.509 252.717C887.338 253.971 890.464 253.423 892.321 251.565C892.796 251.091 893.187 250.532 893.47 249.895Z" fill="white"/>
<path d="M896.132 237.932C898.999 235.065 898.741 230.141 895.555 226.956C892.369 223.769 887.444 223.51 884.577 226.377C881.71 229.244 881.969 234.169 885.156 237.355C888.341 240.541 893.265 240.8 896.132 237.932Z" fill="white"/>
<path d="M906.508 230.592L906.508 230.591C907.088 230.303 907.6 229.931 908.041 229.49C910.097 227.434 910.586 223.915 909.023 220.822C908.123 219.042 906.677 217.654 904.952 216.914C903.145 216.139 901.253 216.159 899.622 216.968C897.991 217.778 896.843 219.27 896.387 221.167C895.952 222.979 896.209 224.958 897.109 226.738C899.008 230.493 903.224 232.222 906.508 230.592Z" fill="white"/>
<path d="M916.634 218.977L916.632 218.977C913.243 219.496 910.942 223.041 911.504 226.881C912.068 230.72 915.284 233.424 918.672 232.909C919.908 232.721 920.999 232.131 921.86 231.27C923.36 229.77 924.159 227.448 923.803 225.005C923.238 221.167 920.022 218.462 916.634 218.977Z" fill="white"/>
</g>
<g opacity="0.1">
<path d="M1000.58 343.93C997.946 340.739 993.924 339.129 989.819 339.625C985.715 340.121 982.192 342.641 980.395 346.368L976.064 355.346C975.346 356.836 975.13 358.483 975.441 360.108C975.751 361.733 976.558 363.184 977.775 364.305C978.993 365.424 980.506 366.107 982.151 366.28C983.795 366.453 985.417 366.098 986.84 365.255L986.935 365.199C990.52 363.111 994.843 362.604 998.816 363.809C999.841 364.119 1000.9 364.211 1001.94 364.086C1002.5 364.017 1003.07 363.884 1003.61 363.688C1005.17 363.129 1006.48 362.105 1007.39 360.727C1008.31 359.35 1008.75 357.748 1008.66 356.096C1008.58 354.443 1007.98 352.895 1006.92 351.618L1000.58 343.93Z" fill="white"/>
<path d="M976.544 346.618C978.051 345.82 979.098 344.402 979.492 342.625C979.867 340.934 979.599 339.108 978.737 337.483C977.875 335.86 976.513 334.615 974.902 333.976C973.209 333.305 971.447 333.375 969.943 334.174C966.915 335.777 965.932 339.874 967.751 343.308C969.204 346.041 972.001 347.539 974.609 347.224C975.275 347.143 975.928 346.944 976.544 346.618Z" fill="white"/>
<path d="M986.022 338.849C990.047 338.363 992.883 334.329 992.343 329.856C991.802 325.383 988.088 322.139 984.062 322.626C980.037 323.112 977.201 327.147 977.742 331.62C978.282 336.092 981.996 339.335 986.022 338.849Z" fill="white"/>
<path d="M998.716 339.478L998.717 339.477C999.35 339.608 999.983 339.631 1000.6 339.556C1003.49 339.208 1006.05 336.741 1006.72 333.343C1007.12 331.387 1006.83 329.402 1005.93 327.755C1004.99 326.031 1003.49 324.878 1001.71 324.509C999.924 324.139 998.1 324.604 996.57 325.815C995.109 326.973 994.09 328.688 993.7 330.644C992.876 334.771 995.126 338.733 998.716 339.478Z" fill="white"/>
<path d="M1013.85 336.589L1013.85 336.588C1010.86 334.904 1006.87 336.273 1004.94 339.641C1003.01 343.01 1003.87 347.123 1006.86 348.808C1007.95 349.423 1009.17 349.633 1010.38 349.487C1012.48 349.232 1014.54 347.899 1015.77 345.757C1017.7 342.388 1016.84 338.275 1013.85 336.589Z" fill="white"/>
</g>
<g opacity="0.1">
<path d="M914.028 115.113C910.425 113.08 906.094 113.022 902.441 114.959C898.789 116.895 896.406 120.513 896.066 124.636L895.248 134.571C895.112 136.219 895.502 137.833 896.375 139.239C897.248 140.644 898.523 141.708 900.061 142.317C901.6 142.925 903.257 143.019 904.854 142.59C906.451 142.161 907.837 141.248 908.863 139.95L908.931 139.863C911.528 136.627 915.381 134.602 919.521 134.3C920.589 134.222 921.609 133.928 922.534 133.437C923.038 133.17 923.514 132.845 923.955 132.464C925.206 131.384 926.059 129.959 926.419 128.345C926.78 126.73 926.614 125.078 925.941 123.566C925.268 122.054 924.151 120.825 922.71 120.012L914.028 115.113Z" fill="white"/>
<path d="M892.562 126.252C893.682 124.966 894.15 123.267 893.88 121.467C893.622 119.754 892.717 118.146 891.329 116.939C889.942 115.734 888.223 115.06 886.49 115.042C884.67 115.024 883.05 115.722 881.933 117.008C879.683 119.591 880.236 123.768 883.167 126.32C885.504 128.349 888.653 128.742 890.974 127.512C891.566 127.198 892.105 126.778 892.562 126.252Z" fill="white"/>
<path d="M898.618 115.598C902.201 113.699 903.399 108.916 901.289 104.936C899.178 100.954 894.547 99.261 890.964 101.16C887.382 103.059 886.184 107.843 888.295 111.824C890.405 115.804 895.036 117.497 898.618 115.598Z" fill="white"/>
<path d="M910.692 111.627L910.692 111.627C911.331 111.521 911.93 111.315 912.48 111.023C915.05 109.661 916.55 106.441 915.964 103.026C915.626 101.06 914.652 99.3083 913.219 98.0948C911.72 96.8242 909.905 96.2871 908.109 96.5825C906.312 96.878 904.776 97.9662 903.784 99.6463C902.836 101.251 902.5 103.218 902.838 105.184C903.551 109.331 907.074 112.221 910.692 111.627Z" fill="white"/>
<path d="M923.781 103.496L923.78 103.496C920.387 102.997 917.147 105.711 916.557 109.546C915.97 113.381 918.25 116.91 921.64 117.413C922.877 117.596 924.093 117.352 925.169 116.782C927.043 115.788 928.489 113.804 928.865 111.364C929.452 107.528 927.172 103.999 923.781 103.496Z" fill="white"/>
</g>
<g opacity="0.05">
<path d="M798.139 33.4714C794.012 33.7598 790.365 36.0977 788.383 39.7259C786.402 43.3541 786.406 47.6862 788.394 51.3138L793.185 60.0559C793.98 61.5063 795.195 62.6388 796.697 63.3306C798.2 64.0226 799.85 64.2086 801.47 63.8693C803.088 63.5287 804.523 62.6943 805.62 61.4564C806.716 60.2185 807.37 58.6928 807.511 57.0448L807.52 56.9343C807.904 52.8037 810.004 48.9905 813.293 46.4575C814.141 45.8039 814.83 44.9971 815.333 44.0774C815.606 43.5774 815.824 43.0434 815.982 42.483C816.431 40.8917 816.358 39.2334 815.769 37.687C815.181 36.1414 814.132 34.8532 812.737 33.9622C811.342 33.0712 809.733 32.6613 808.083 32.7763L798.139 33.4714Z" fill="white"/>
<path d="M786.36 54.5939C786.586 52.9035 786.041 51.2274 784.823 49.8742C783.665 48.5862 782.023 47.7433 780.2 47.5008C778.378 47.2592 776.573 47.6438 775.117 48.5838C773.587 49.5713 772.621 51.0459 772.396 52.7345C771.942 56.1302 774.704 59.3111 778.556 59.8259C781.624 60.2321 784.469 58.8255 785.728 56.5202C786.05 55.9316 786.268 55.2843 786.36 54.5939Z" fill="white"/>
<path d="M785.545 42.3658C787.489 38.807 785.853 34.155 781.9 31.9958C777.945 29.836 773.147 30.9744 771.203 34.5333C769.26 38.0918 770.896 42.7438 774.851 44.9035C778.804 47.0627 783.602 45.9243 785.545 42.3658Z" fill="white"/>
<path d="M793.433 32.3996L793.433 32.3993C793.908 31.9597 794.295 31.4577 794.593 30.9107C795.987 28.3585 795.465 24.8443 793.094 22.3172C791.73 20.8622 789.951 19.9377 788.087 19.7141C786.136 19.4796 784.326 20.0312 782.989 21.2675C781.652 22.5041 780.97 24.2582 781.068 26.2071C781.161 28.0687 781.964 29.895 783.329 31.3493C786.209 34.4177 790.741 34.8889 793.433 32.3996Z" fill="white"/>
<path d="M799.878 18.4033L799.876 18.4037C796.77 19.8566 795.561 23.9061 797.182 27.4319C798.805 30.9564 802.652 32.6451 805.758 31.1966C806.891 30.6686 807.772 29.7947 808.355 28.7265C809.372 26.8647 809.485 24.4117 808.455 22.1681C806.832 18.6439 802.984 16.9549 799.878 18.4033Z" fill="white"/>
</g>
<g opacity="0.05">
<path d="M119.273 61.9497C120.306 57.9436 119.242 53.7442 116.427 50.7165C113.612 47.6889 109.501 46.3222 105.431 47.0605L95.6221 48.8389C93.9948 49.1338 92.536 49.928 91.4043 51.1346C90.2723 52.3415 89.5738 53.8478 89.3833 55.4913C89.1941 57.1346 89.5316 58.7599 90.3591 60.1916C91.1865 61.6232 92.427 62.7261 93.9456 63.3814L94.0476 63.425C97.8444 65.0966 100.797 68.2949 102.159 72.2164C102.511 73.2279 103.058 74.1369 103.772 74.9044C104.16 75.3216 104.597 75.6973 105.079 76.0249C106.446 76.9546 108.043 77.4095 109.696 77.3404C111.348 77.2711 112.902 76.684 114.189 75.6429C115.475 74.6017 116.373 73.2048 116.786 71.6028L119.273 61.9497Z" fill="white"/>
<path d="M102.963 44.0928C104.495 44.8428 106.258 44.8556 107.927 44.1288C109.515 43.4373 110.834 42.1467 111.641 40.4942C112.446 38.8422 112.653 37.008 112.222 35.3292C111.769 33.5659 110.676 32.1823 109.145 31.4351C106.068 29.9296 102.176 31.5438 100.469 35.0351C99.1129 37.8168 99.5471 40.9606 101.336 42.8843C101.792 43.3756 102.337 43.7872 102.963 44.0928Z" fill="white"/>
<path d="M114.821 47.1889C117.582 50.1587 122.512 50.0794 125.812 47.0121C129.112 43.944 129.55 39.0319 126.789 36.0621C124.028 33.0926 119.098 33.1727 115.797 36.2408C112.498 39.3081 112.06 44.2194 114.821 47.1889Z" fill="white"/>
<path d="M121.779 57.8253L121.779 57.8255C122.046 58.4151 122.4 58.9404 122.824 59.3968C124.804 61.5267 128.303 62.1437 131.45 60.694C133.262 59.8597 134.702 58.4653 135.504 56.7678C136.344 54.9911 136.393 53.0991 135.644 51.44C134.894 49.7807 133.445 48.5786 131.566 48.0544C129.77 47.5536 127.784 47.7378 125.972 48.5727C122.15 50.3333 120.269 54.4841 121.779 57.8253Z" fill="white"/>
<path d="M133.017 68.3673L133.017 68.3657C132.622 64.9594 129.163 62.5311 125.305 62.9528C121.449 63.3772 118.629 66.4926 119.021 69.8969C119.163 71.1388 119.713 72.251 120.542 73.1424C121.986 74.6961 124.278 75.5795 126.732 75.3122C130.589 74.8875 133.408 71.7724 133.017 68.3673Z" fill="white"/>
</g>
<g opacity="0.05">
<path d="M428.959 19.0296C433.718 26.4604 441.823 30.8973 450.64 30.8973C459.458 30.8973 467.563 26.4604 472.321 19.0296L483.789 1.12433C485.691 -1.84602 486.569 -5.27832 486.328 -8.79865C486.087 -12.3198 484.748 -15.5987 482.457 -18.2831C480.165 -20.9652 477.136 -22.7984 473.698 -23.585C470.26 -24.3716 466.735 -24.0357 463.506 -22.6151L463.29 -22.519C455.165 -19.0156 445.88 -19.0479 437.775 -22.6151C435.685 -23.5349 433.47 -24.0001 431.235 -24.0001C430.02 -24.0001 428.797 -23.862 427.586 -23.5858C424.148 -22.8 421.119 -20.9668 418.826 -18.2839C416.534 -15.6019 415.195 -12.3222 414.953 -8.80028C414.711 -5.27833 415.589 -1.84683 417.491 1.12514L428.959 19.0296Z" fill="white"/>
<path d="M480.542 19.4847C477.145 20.7883 474.565 23.5232 473.277 27.1859C472.05 30.6713 472.151 34.6062 473.561 38.2666C474.971 41.9245 477.537 44.9106 480.785 46.6758C484.197 48.5292 487.946 48.831 491.336 47.525C498.158 44.9042 501.288 36.4805 498.313 28.7432C495.937 22.5848 490.396 18.6973 484.793 18.6973C483.363 18.6973 481.928 18.9509 480.542 19.4847Z" fill="white"/>
<path d="M458.484 33.5114C449.835 33.5114 442.798 41.3286 442.798 50.9372C442.798 60.5482 449.835 68.3669 458.484 68.3669C467.132 68.3669 474.168 60.5482 474.168 50.9372C474.168 41.3286 467.132 33.5114 458.484 33.5114Z" fill="white"/>
<path d="M431.763 28.9335L431.762 28.9335C430.453 28.494 429.119 28.284 427.789 28.284C421.587 28.284 415.542 32.8534 413.235 39.8757C411.906 43.918 411.994 48.1922 413.481 51.9101C415.037 55.8024 417.92 58.6276 421.601 59.8658C425.282 61.104 429.264 60.5875 432.812 58.4127C436.202 56.3352 438.799 52.9643 440.126 48.922C442.926 40.3947 439.174 31.4278 431.763 28.9335Z" fill="white"/>
<path d="M398.973 31.1788L398.976 31.1812C404.871 35.5107 413.688 33.6342 418.631 26.9958C423.57 20.3543 422.798 11.4256 416.911 7.09289C414.764 5.51177 412.228 4.75603 409.632 4.75603C405.107 4.75603 400.399 7.05206 397.253 11.2743C392.315 17.9158 393.086 26.8445 398.973 31.1788Z" fill="white"/>
</g>
<g opacity="0.2">
<path d="M1191.18 -5.76024C1188.5 -8.19708 1184.83 -9.09382 1181.33 -8.15849C1177.84 -7.22316 1175.11 -4.60692 1174.01 -1.16054L1171.37 7.14417C1170.93 8.52188 1170.95 9.97377 1171.42 11.3418C1171.89 12.7101 1172.76 13.8662 1173.96 14.6859C1175.15 15.5045 1176.54 15.9089 1177.99 15.8556C1179.43 15.8023 1180.79 15.2955 1181.92 14.3906L1181.99 14.3296C1184.84 12.0808 1188.52 11.1087 1192.1 11.6612C1193.03 11.8036 1193.95 11.7528 1194.84 11.5157C1195.32 11.3868 1195.79 11.2025 1196.24 10.9647C1197.52 10.2889 1198.52 9.24182 1199.15 7.9365C1199.77 6.63166 1199.95 5.19124 1199.67 3.77131C1199.4 2.35137 1198.68 1.08605 1197.62 0.111333L1191.18 -5.76024Z" fill="white"/>
<path d="M1170.71 -0.468921C1171.91 -1.34523 1172.65 -2.70156 1172.77 -4.28824C1172.88 -5.79812 1172.43 -7.3452 1171.48 -8.64472C1170.53 -9.9432 1169.2 -10.8532 1167.73 -11.2074C1166.18 -11.5792 1164.66 -11.301 1163.46 -10.4244C1161.04 -8.66328 1160.69 -4.99651 1162.69 -2.24899C1164.28 -0.0630593 1166.89 0.8881 1169.11 0.293802C1169.67 0.142053 1170.22 -0.110538 1170.71 -0.468921Z" fill="white"/>
</g>
</g>
</svg>
